HIERARCHY
ROOT Hips
{
  OFFSET 5.80788e-005 67.184 3.4734
  CHANNELS 6 Xposition Yposition Zposition Zrotation Xrotation Yrotation
  JOINT Chest
  {
    OFFSET 0 8.7983 -4.7612
    CHANNELS 3 Zrotation Xrotation Yrotation
    JOINT Chest2
    {
      OFFSET 0 8.0291 0.4195
      CHANNELS 3 Zrotation Xrotation Yrotation
      JOINT Chest3
      {
        OFFSET 0 9.9351 -2.2114
        CHANNELS 3 Zrotation Xrotation Yrotation
        JOINT Neck
        {
          OFFSET 0 22.3885 -0.4656
          CHANNELS 3 Zrotation Xrotation Yrotation
          JOINT Head
          {
            OFFSET -0.0001 12.643 3.4389
            CHANNELS 3 Zrotation Xrotation Yrotation
            End Site
            {
              OFFSET 0.0001 17.6655 0.5274
            }
          }
        }
        JOINT LeftCollar
        {
          OFFSET 2.2603 21.606 7.4023
          CHANNELS 3 Zrotation Xrotation Yrotation
          JOINT LeftShoulder
          {
            OFFSET 13.5163 -1.1332 -5.0146
            CHANNELS 3 Zrotation Xrotation Yrotation
            JOINT LeftElbow
            {
              OFFSET -0.0995 -28.05 -0.2431
              CHANNELS 3 Zrotation Xrotation Yrotation
              JOINT LeftWrist
              {
                OFFSET 0.0679 -23.3996 -0.1402
                CHANNELS 3 Zrotation Xrotation Yrotation
                JOINT LeftFinger1
                {
                  OFFSET 0.7932 -9.069 2.5189
                  CHANNELS 3 Zrotation Xrotation Yrotation
                  JOINT LeftFinger11
                  {
                    OFFSET -0.8272 -3.3923 0.5977
                    CHANNELS 3 Zrotation Xrotation Yrotation
                    JOINT LeftFinger12
                    {
                      OFFSET -0.5649 -2.3158 0.4082
                      CHANNELS 3 Zrotation Xrotation Yrotation
                      End Site
                      {
                        OFFSET -0.4919 -1.6479 0.2673
                      }
                    }
                  }
                }
                JOINT LeftFinger2
                {
                  OFFSET 0.9159 -9.2044 0.2193
                  CHANNELS 3 Zrotation Xrotation Yrotation
                  JOINT LeftFinger21
                  {
                    OFFSET 0.0117 -4.1944 -0.0248
                    CHANNELS 3 Zrotation Xrotation Yrotation
                    JOINT LeftFinger22
                    {
                      OFFSET 0.0071 -2.3249 -0.0142
                      CHANNELS 3 Zrotation Xrotation Yrotation
                      End Site
                      {
                        OFFSET -0.1475 -2.0882 0.0028
                      }
                    }
                  }
                }
                JOINT LeftFinger3
                {
                  OFFSET 0.6113 -8.7231 -2.0637
                  CHANNELS 3 Zrotation Xrotation Yrotation
                  JOINT LeftFinger31
                  {
                    OFFSET -0.1927 -3.8059 -0.2383
                    CHANNELS 3 Zrotation Xrotation Yrotation
                    JOINT LeftFinger32
                    {
                      OFFSET -0.1091 -2.1688 -0.1362
                      CHANNELS 3 Zrotation Xrotation Yrotation
                      End Site
                      {
                        OFFSET -0.2358 -1.9176 -0.0906
                      }
                    }
                  }
                }
                JOINT LeftFinger4
                {
                  OFFSET -0.6151 -8.0947 -3.5641
                  CHANNELS 3 Zrotation Xrotation Yrotation
                  JOINT LeftFinger41
                  {
                    OFFSET -0.4882 -2.341 -0.6462
                    CHANNELS 3 Zrotation Xrotation Yrotation
                    JOINT LeftFinger42
                    {
                      OFFSET -0.3575 -1.7167 -0.4742
                      CHANNELS 3 Zrotation Xrotation Yrotation
                      End Site
                      {
                        OFFSET -0.4187 -1.5237 -0.3496
                      }
                    }
                  }
                }
                JOINT LeftFinger0
                {
                  OFFSET -1.42 -1.8761 1.4223
                  CHANNELS 3 Zrotation Xrotation Yrotation
                  JOINT LeftFinger01
                  {
                    OFFSET -1.1471 -3.4929 2.6334
                    CHANNELS 3 Zrotation Xrotation Yrotation
                    JOINT LeftFinger02
                    {
                      OFFSET -0.823 -2.3 1.6571
                      CHANNELS 3 Zrotation Xrotation Yrotation
                      End Site
                      {
                        OFFSET -0.5822 -1.6914 1.1582
                      }
                    }
                  }
                }
              }
            }
          }
        }
        JOINT RightCollar
        {
          OFFSET -2.2603 21.606 7.4023
          CHANNELS 3 Zrotation Xrotation Yrotation
          JOINT RightShoulder
          {
            OFFSET -13.5187 -1.1334 -5.0155
            CHANNELS 3 Zrotation Xrotation Yrotation
            JOINT RightElbow
            {
              OFFSET 0.0994 -28.0499 -0.2431
              CHANNELS 3 Zrotation Xrotation Yrotation
              JOINT RightWrist
              {
                OFFSET -0.0679 -23.3996 -0.1402
                CHANNELS 3 Zrotation Xrotation Yrotation
                JOINT RightFinger1
                {
                  OFFSET -0.7932 -9.0691 2.5189
                  CHANNELS 3 Zrotation Xrotation Yrotation
                  JOINT RightFinger11
                  {
                    OFFSET 0.8272 -3.3923 0.5977
                    CHANNELS 3 Zrotation Xrotation Yrotation
                    JOINT RightFinger12
                    {
                      OFFSET 0.565 -2.3158 0.4082
                      CHANNELS 3 Zrotation Xrotation Yrotation
                      End Site
                      {
                        OFFSET 0.4919 -1.6479 0.2673
                      }
                    }
                  }
                }
                JOINT RightFinger2
                {
                  OFFSET -0.916 -9.2044 0.2193
                  CHANNELS 3 Zrotation Xrotation Yrotation
                  JOINT RightFinger21
                  {
                    OFFSET -0.0117 -4.1944 -0.0248
                    CHANNELS 3 Zrotation Xrotation Yrotation
                    JOINT RightFinger22
                    {
                      OFFSET -0.0071 -2.3249 -0.0142
                      CHANNELS 3 Zrotation Xrotation Yrotation
                      End Site
                      {
                        OFFSET 0.1475 -2.0882 0.0028
                      }
                    }
                  }
                }
                JOINT RightFinger3
                {
                  OFFSET -0.6113 -8.7231 -2.0637
                  CHANNELS 3 Zrotation Xrotation Yrotation
                  JOINT RightFinger31
                  {
                    OFFSET 0.1927 -3.8059 -0.2383
                    CHANNELS 3 Zrotation Xrotation Yrotation
                    JOINT RightFinger32
                    {
                      OFFSET 0.1091 -2.1688 -0.1362
                      CHANNELS 3 Zrotation Xrotation Yrotation
                      End Site
                      {
                        OFFSET 0.2358 -1.9176 -0.0906
                      }
                    }
                  }
                }
                JOINT RightFinger4
                {
                  OFFSET 0.6151 -8.0947 -3.564
                  CHANNELS 3 Zrotation Xrotation Yrotation
                  JOINT RightFinger41
                  {
                    OFFSET 0.4882 -2.341 -0.6462
                    CHANNELS 3 Zrotation Xrotation Yrotation
                    JOINT RightFinger42
                    {
                      OFFSET 0.3574 -1.7166 -0.4742
                      CHANNELS 3 Zrotation Xrotation Yrotation
                      End Site
                      {
                        OFFSET 0.4187 -1.5237 -0.3496
                      }
                    }
                  }
                }
                JOINT RightFinger0
                {
                  OFFSET 1.4199 -1.8761 1.4221
                  CHANNELS 3 Zrotation Xrotation Yrotation
                  JOINT RightFinger01
                  {
                    OFFSET 1.1472 -3.4929 2.6336
                    CHANNELS 3 Zrotation Xrotation Yrotation
                    JOINT RightFinger02
                    {
                      OFFSET 0.8229 -2.3 1.6571
                      CHANNELS 3 Zrotation Xrotation Yrotation
                      End Site
                      {
                        OFFSET 0.5822 -1.6914 1.1582
                      }
                    }
                  }
                }
              }
            }
          }
        }
      }
    }
  }
  JOINT RightHip
  {
    OFFSET -9.412 3.9771 -0.7758
    CHANNELS 3 Zrotation Xrotation Yrotation
    JOINT RightKnee
    {
      OFFSET -0.7531 -40.938 0
      CHANNELS 3 Zrotation Xrotation Yrotation
      JOINT RightAnkle
      {
        OFFSET 0 -40.1986 0
        CHANNELS 3 Zrotation Xrotation Yrotation
        JOINT RightToe
        {
          OFFSET 0 -4.4182 9.239
          CHANNELS 3 Zrotation Xrotation Yrotation
          End Site
          {
            OFFSET 0 0 6.1981
          }
        }
      }
    }
  }
  JOINT LeftHip
  {
    OFFSET 9.4119 3.9773 -0.7758
    CHANNELS 3 Zrotation Xrotation Yrotation
    JOINT LeftKnee
    {
      OFFSET 0.7532 -40.9383 0
      CHANNELS 3 Zrotation Xrotation Yrotation
      JOINT LeftAnkle
      {
        OFFSET 0 -40.1986 0
        CHANNELS 3 Zrotation Xrotation Yrotation
        JOINT LeftToe
        {
          OFFSET 0 -4.4182 9.239
          CHANNELS 3 Zrotation Xrotation Yrotation
          End Site
          {
            OFFSET 0 0 6.1981
          }
        }
      }
    }
  }
}
MOTION
Frames:	5
Frame Time:	0.0333333
5.80788e-005 67.184 3.4734 0 0 -0 0 0 -0 0 0 -0 0 0 -0 0 0 -0 0 0 -0 0 0 -12.5014 88.1196 14.2451 10.6914 -0.00160068 -0.00239207 0.000740045 -8.4365e-005 7.00714e-005 -9.52055e-007 9.93923e-017 -1.98785e-016 -1.59028e-015 9.93923e-017 -5.96354e-016 -1.59028e-015 -9.93923e-017 -5.96354e-016 -1.59028e-015 9.93923e-017 -1.98785e-016 -1.59028e-015 -0.0128176 0.00232552 8.52707e-005 9.93923e-017 5.96354e-016 -0 9.93923e-017 -1.98785e-016 -1.59028e-015 -0.0160551 0.00299681 0.000857156 -2.48481e-016 0 3.18055e-015 9.93923e-017 -1.98785e-016 -1.59028e-015 -0.0125865 0.0031206 0.00282719 0 1.98785e-016 -0 9.93923e-017 -1.98785e-016 -1.59028e-015 9.93923e-017 -5.96354e-016 -1.59028e-015 -9.93923e-017 -5.96354e-016 -1.59028e-015 -0.865644 0.16582 7.03859 -88.0329 10.2057 -10.5567 0.0015593 -0.00248883 -0.000788628 7.87605e-005 4.10553e-005 1.24965e-005 -3.97569e-016 -7.95139e-016 3.18055e-015 -1.98785e-016 -3.97569e-016 3.18055e-015 -1.98785e-016 0 3.18055e-015 -3.97569e-016 -7.95139e-016 3.18055e-015 0.0129473 0.00231697 -8.70038e-005 9.93923e-017 -7.95139e-016 1.59028e-015 -3.97569e-016 -7.95139e-016 3.18055e-015 0.0163314 0.00303369 -0.000872333 3.97569e-016 7.95139e-016 -3.18055e-015 -3.97569e-016 -7.95139e-016 3.18055e-015 0.0145763 0.00367772 -0.00326275 9.93923e-017 -3.97569e-016 -0 -3.97569e-016 -7.95139e-016 3.18055e-015 -1.98785e-016 -3.97569e-016 3.18055e-015 -1.98785e-016 0 3.18055e-015 3.42485 1.36937 -0.0640303 0.000136572 0.69354 0.00145564 -3.42573 -2.06297 -0.0607933 -3.19502e-024 0 -1.48106e-024 -3.42498 1.36123 0.0639712 -6.769e-005 0.712612 -0.0012277 3.42582 -2.07388 0.0612819 2.55305e-023 0 -2.31416e-026 
-1.84711 45.6656 16.6181 8.08206e-009 6.55652e-007 -33.334 -0.0425928 4.46696 -0.0580951 -0.0810001 8.93396 -0.113325 -0.0810045 8.93396 -0.113327 -0.84951 1.53291 7.18477 0.000316624 -13.6928 0.036673 9.196 -4.99263 -6.41351 77.7145 -1.35792 13.5742 -21.3662 -42.9788 -8.35893 11.6008 2.32353 23.4772 -4.97293e-006 -3.02886e-006 -1.10243e-006 2.38542e-015 0 5.76476e-015 3.18055e-015 -1.59028e-015 -3.37934e-015 -4.97293e-006 -3.02886e-006 -1.10243e-006 -0.0127813 0.00231965 8.89302e-005 -5.41738e-006 9.17327e-006 1.78048e-006 -4.97293e-006 -3.02886e-006 -1.10243e-006 -0.0160114 0.00300115 0.000854855 -1.65757e-006 -2.0601e-006 -3.67567e-007 -4.97293e-006 -3.02886e-006 -1.10243e-006 -0.0126514 0.00313687 0.00284307 -2.38542e-015 0 2.98177e-015 -4.97293e-006 -3.02886e-006 -1.10243e-006 2.38542e-015 0 5.76476e-015 3.18055e-015 -1.59028e-015 -3.37934e-015 2.83814 -20.1372 -12.5839 -55.2633 2.87738 -6.90133 1.09423 -44.3375 -25.7536 6.48563 7.48029 -18.7282 1.59028e-015 -5.1684e-015 -0 8.48421e-006 1.63641e-005 4.72031e-006 -1.98785e-016 9.59136e-015 -0 1.59028e-015 -5.1684e-015 -0 0.0129654 0.00235423 -7.93201e-005 -1.78906e-015 1.6847e-014 -3.18055e-015 1.59028e-015 -5.1684e-015 -0 0.0163388 0.00303443 -0.00087525 1.98785e-016 1.98785e-015 -0 1.59028e-015 -5.1684e-015 -0 0.0145663 0.00368823 -0.00325489 4.31818e-006 -3.69601e-006 -3.09902e-006 1.59028e-015 -5.1684e-015 -0 8.48421e-006 1.63641e-005 4.72031e-006 -1.98785e-016 9.59136e-015 -0 1.02984 -19.9238 -0.533159 -3.78112 59.3277 4.64955 -3.66592 12.6558 0.0964639 5.23552e-007 1.77088e-007 6.73649e-007 0.429342 -19.7352 -0.685018 3.77937 59.0475 -4.67459 3.12419 12.6365 -2.11546 -1.0454e-006 -1.41e-006 -1.34883e-006 
-3.02411 24.1013 28.9021 7.18696e-007 0 -66.6681 -0.0715789 8.9337 -0.125785 -0.125347 17.8676 -0.244678 -0.125344 17.8676 -0.244687 -2.07992 2.99338 14.3844 0.0201828 -27.3857 0.0802331 19.4592 -9.81519 -0.189027 68.4352 -17.3336 16.5545 -102.097 -77.9621 -77.242 23.4254 4.60867 47.3606 -1.0656e-005 -5.96579e-007 2.79308e-006 7.20662e-006 5.41649e-006 -1.92522e-005 -3.18055e-015 -4.17448e-015 -0 -1.0656e-005 -5.96579e-007 2.79308e-006 -0.0128016 0.00231572 6.36844e-005 -6.36111e-015 1.49089e-015 -7.95139e-016 -1.0656e-005 -5.96579e-007 2.79308e-006 -0.016 0.00300233 0.000833808 -1.24141e-032 1.78906e-015 3.97569e-016 -1.0656e-005 -5.96579e-007 2.79308e-006 -0.0126194 0.00313736 0.00282211 6.36111e-015 1.19271e-015 -3.97569e-016 -1.0656e-005 -5.96579e-007 2.79308e-006 7.20662e-006 5.41649e-006 -1.92522e-005 -3.18055e-015 -4.17448e-015 -0 -8.36131 -32.9818 -38.4126 -23.3299 -6.27426 -2.05677 76.1667 -78.3733 25.7929 12.7811 14.6627 -37.6397 -1.93681e-006 -8.00187e-006 4.39372e-006 2.01394e-007 3.87422e-006 -1.90472e-005 -2.79582e-006 -7.81401e-007 6.92126e-006 -1.93681e-006 -8.00187e-006 4.39372e-006 0.0129446 0.00231571 -9.68502e-005 5.45857e-007 -2.93104e-006 8.92123e-006 -1.93681e-006 -8.00187e-006 4.39372e-006 0.0163563 0.00304265 -0.000880946 -8.59757e-007 -2.14091e-006 2.52753e-006 -1.93681e-006 -8.00187e-006 4.39372e-006 0.0146201 0.00369263 -0.00328418 -1.93696e-006 -3.4911e-006 4.39357e-006 -1.93681e-006 -8.00187e-006 4.39372e-006 2.01394e-007 3.87422e-006 -1.90472e-005 -2.79582e-006 -7.81401e-007 6.92126e-006 -0.85133 -39.7255 -1.98904 -165.263 63.4776 163.093 -3.53244 28.3241 -0.488621 -3.18055e-015 6.36111e-015 -0 2.77935 -39.3478 -1.0071 164.85 63.9864 -162.714 3.93801 28.2065 -4.18016 1.32922e-006 -6.09914e-006 -1.72577e-006 
-3.28269 9.00305 37.2552 -1.20013e-011 -7.32751e-007 -90.0019 -0.0779722 12.0605 -0.183389 -0.11954 24.121 -0.362048 -0.11954 24.1211 -0.362034 -3.00767 3.98127 19.209 -5.85861e-006 -37.0045 1.19126e-006 27.2463 -12.9689 4.40607 62.7172 -28.7038 18.955 172.556 -58.7006 -154.487 31.7872 6.28177 64.3454 -6.36111e-015 -3.18055e-015 3.18055e-015 -3.28239e-007 -4.7728e-006 -1.25386e-007 1.51791e-006 4.504e-006 -2.08802e-006 -6.36111e-015 -3.18055e-015 3.18055e-015 -0.0128354 0.00232177 9.14854e-005 -1.51849e-006 1.80766e-007 2.08796e-006 -6.36111e-015 -3.18055e-015 3.18055e-015 -0.0160633 0.00298582 0.000847541 6.87034e-023 4.1255e-007 -9.54166e-015 -6.36111e-015 -3.18055e-015 3.18055e-015 -0.0126065 0.00312337 0.00283023 3.18055e-015 1.8155e-006 -3.18055e-015 -6.36111e-015 -3.18055e-015 3.18055e-015 -3.28239e-007 -4.7728e-006 -1.25386e-007 1.51791e-006 4.504e-006 -2.08802e-006 -22.3071 -33.394 -58.4922 -1.12962 -13.2574 2.41197 134.05 -54.506 67.9817 16.9284 19.5711 -50.8546 7.95139e-015 -3.18055e-015 7.95139e-015 3.01708e-007 -1.13423e-006 -1.70574e-006 8.82781e-032 3.18055e-015 -1.59028e-015 7.95139e-015 -3.18055e-015 7.95139e-015 0.0129711 0.00231991 -9.03219e-005 -7.95139e-016 0 -3.18055e-015 7.95139e-015 -3.18055e-015 7.95139e-015 0.0163314 0.0030355 -0.000879437 1.59028e-015 6.36111e-015 -3.18055e-015 7.95139e-015 -3.18055e-015 7.95139e-015 0.0145598 0.0036689 -0.00326994 -8.03795e-006 1.23971e-006 8.4316e-008 7.95139e-015 -3.18055e-015 7.95139e-015 3.01708e-007 -1.13423e-006 -1.70574e-006 8.82781e-032 3.18055e-015 -1.59028e-015 -2.30035 -51.6843 -7.36379 -173.804 24.812 163.848 -1.98374 37.735 -3.05954 -1.97516e-006 -1.5806e-005 1.57027e-006 3.67867 -51.2842 2.02536 173.623 25.4968 -163.899 4.49586 37.6296 -4.49344 -6.58227e-007 5.1073e-006 5.23509e-007 
-3.2855 4.68307 39.6329 -1.39859e-014 8.14836e-016 -96.6687 -0.0675588 12.9537 -0.207969 -0.0889267 25.9077 -0.416464 -0.0889116 25.9075 -0.416488 -2.94173 4.36477 20.0428 -0.149688 -39.8327 -0.324745 29.4853 -13.7599 5.95999 61.2309 -31.9587 19.7299 165.024 -50.427 -159.696 34.0738 6.70642 69.3939 4.77083e-015 0 -6.36111e-015 -1.06904e-005 -7.46278e-006 -1.39561e-006 9.73432e-006 7.76624e-006 2.64945e-006 4.77083e-015 0 -6.36111e-015 -0.0128409 0.00233259 8.46775e-005 -9.31335e-006 1.50399e-006 2.49753e-006 4.77083e-015 0 -6.36111e-015 -0.0160349 0.00299267 0.000852322 -6.36111e-015 -1.27222e-014 -6.36111e-015 4.77083e-015 0 -6.36111e-015 -0.0125778 0.0031289 0.00282658 -1.49084e-006 -8.213e-006 7.65481e-006 4.77083e-015 0 -6.36111e-015 -1.06904e-005 -7.46278e-006 -1.39561e-006 9.73432e-006 7.76624e-006 2.64945e-006 -26.2612 -32.1335 -63.5186 5.30741 -15.286 3.95586 136.317 -45.6386 65.7956 17.8255 21.0293 -54.4434 1.59028e-015 2.54444e-014 1.59028e-015 1.59028e-015 2.54444e-014 3.18055e-015 7.95139e-016 2.8625e-014 3.18055e-015 1.59028e-015 2.54444e-014 1.59028e-015 0.0129372 0.00231343 -8.59603e-005 7.95139e-016 6.36111e-015 -3.18055e-015 1.59028e-015 2.54444e-014 1.59028e-015 0.0163418 0.00302765 -0.000872796 -1.59028e-015 0 -1.59028e-015 1.59028e-015 2.54444e-014 1.59028e-015 0.0146325 0.00368871 -0.00327433 2.38542e-015 3.18055e-015 -3.18055e-015 1.59028e-015 2.54444e-014 1.59028e-015 1.59028e-015 2.54444e-014 3.18055e-015 7.95139e-016 2.8625e-014 3.18055e-015 -3.30065 -52.7242 -13.2004 -175.915 13.8864 160.289 -0.171444 38.0038 -5.78741 7.39605e-007 1.55803e-006 -3.93171e-007 4.64916 -52.6007 6.73164 175.714 14.6119 -160.674 3.71732 38.2346 -2.96836 7.36739e-007 1.70119e-006 -3.95528e-007 
